#define _width 8
#define _height 8
static char _bits[] = {
 0xff,0x81,0xbd,0xbd,0xbd,0xbd,0x81,0xff };
