#define _width 128
#define _height 64
static char _bits[] = {
 0x00,0x00,0x00,0x00,0x00,0x00,0x00,0x00,0x00,0x00,0x00,0x00,0x00,0x00,0x00,
 0x00,0xfe,0xff,0xff,0xff,0xff,0xff,0xff,0xff,0xff,0xff,0xff,0xff,0xff,0xff,
 0xff,0x7f,0x02,0x00,0x00,0x00,0x00,0x00,0x00,0x00,0x00,0x00,0x00,0x40,0x00,
 0x00,0x00,0x40,0x02,0x00,0x00,0x00,0x00,0x00,0x00,0x00,0x00,0x00,0x00,0x40,
 0x00,0x00,0x00,0x40,0x72,0x22,0x0e,0xff,0xff,0xff,0xff,0xff,0xff,0xff,0xff,
 0x47,0xff,0x01,0x00,0x40,0x8a,0x22,0x91,0x00,0x00,0x00,0x00,0x00,0x00,0x00,
 0x00,0x48,0x11,0x01,0x00,0x40,0x0a,0x3e,0x99,0x00,0x00,0x00,0x00,0x00,0x00,
 0x00,0x00,0x48,0x92,0x00,0x00,0x40,0x0a,0x22,0x95,0x00,0x00,0x00,0x00,0x00,
 0x00,0x00,0x00,0x48,0x54,0x00,0x00,0x40,0x0a,0x22,0x93,0x00,0x00,0x00,0x00,
 0x00,0x00,0x00,0x00,0x48,0x38,0x00,0x00,0x40,0x8a,0x22,0x91,0x00,0x00,0x00,
 0x00,0x00,0x00,0x00,0x00,0x48,0x10,0x00,0x00,0x40,0x72,0x22,0x0e,0xff,0xff,
 0xff,0xff,0xff,0xff,0xff,0xff,0x47,0x10,0x00,0x00,0x40,0x02,0x00,0x00,0x00,
 0x00,0x00,0x00,0x00,0x00,0x00,0x00,0x40,0x10,0x00,0x00,0x40,0x02,0x00,0x00,
 0x00,0x00,0x00,0x00,0x00,0x00,0x00,0x00,0x40,0x10,0x00,0x00,0x40,0x72,0x22,
 0x04,0xff,0xff,0xff,0xff,0xff,0xff,0xff,0xff,0x47,0x10,0x00,0x00,0x40,0x8a,
 0x22,0x86,0x00,0x00,0x00,0x00,0x00,0x00,0x00,0x00,0x48,0x10,0x00,0x00,0x40,
 0x0a,0x3e,0x84,0x00,0x00,0x00,0x00,0x00,0x00,0x00,0x00,0x48,0x10,0x00,0x00,
 0x40,0x0a,0x22,0x84,0x00,0x00,0x00,0x00,0x00,0x00,0x00,0x00,0x48,0x10,0x00,
 0x00,0x40,0x0a,0x22,0x84,0x00,0x00,0x00,0x00,0x00,0x00,0x00,0x00,0x48,0x00,
 0x00,0x00,0x40,0x8a,0x22,0x84,0x00,0x00,0x00,0x00,0x00,0x00,0x00,0x00,0x48,
 0x00,0x00,0x00,0x40,0x72,0x22,0x1f,0xff,0xff,0xff,0xff,0xff,0xff,0xff,0xff,
 0xc7,0xff,0xff,0xff,0x7f,0x02,0x00,0x00,0x00,0x00,0x00,0x00,0x00,0x00,0x00,
 0x00,0x40,0x00,0x00,0x00,0x40,0x02,0x00,0x00,0x00,0x00,0x00,0x00,0x00,0x00,
 0x00,0x00,0x40,0x00,0x00,0x00,0x40,0x72,0x22,0x07,0xff,0xff,0xff,0xff,0xff,
 0xff,0xff,0xff,0x47,0x38,0x0f,0xe7,0x43,0x8a,0xa2,0x88,0x00,0x00,0x00,0x00,
 0x00,0x00,0x00,0x00,0x48,0x44,0x91,0x88,0x40,0x0a,0x3e,0x88,0x00,0x00,0x00,
 0x00,0x00,0x00,0x00,0x00,0x48,0x04,0x8f,0x8f,0x40,0x0a,0x22,0x86,0x00,0x00,
 0x00,0x00,0x00,0x00,0x00,0x00,0x48,0x04,0x91,0x88,0x40,0x0a,0x22,0x81,0x00,
 0x00,0x00,0x00,0x00,0x00,0x00,0x00,0x48,0x04,0x91,0x88,0x40,0x8a,0xa2,0x80,
 0x00,0x00,0x00,0x00,0x00,0x00,0x00,0x00,0x48,0x44,0x91,0x88,0x40,0x72,0xa2,
 0x0f,0xff,0xff,0xff,0xff,0xff,0xff,0xff,0xff,0x47,0x38,0x8f,0x88,0x40,0x02,
 0x00,0x00,0x00,0x00,0x00,0x00,0x00,0x00,0x00,0x00,0x40,0x00,0x00,0x00,0x40,
 0x02,0x00,0x00,0x00,0x00,0x00,0x00,0x00,0x00,0x00,0x00,0x40,0xf0,0xff,0x7f,
 0x40,0x72,0x22,0x0e,0xff,0xff,0xff,0xff,0xff,0xff,0xff,0xff,0x47,0x00,0x00,
 0x00,0x40,0x8a,0x22,0x91,0x00,0x00,0x00,0x00,0x00,0x00,0x00,0x00,0x48,0x00,
 0x00,0x00,0x40,0x0a,0x3e,0x90,0x00,0x00,0x00,0x00,0x00,0x00,0x00,0x00,0x48,
 0x00,0x00,0x00,0x40,0x0a,0x22,0x8c,0x00,0x00,0x00,0x00,0x00,0x00,0x00,0x00,
 0x48,0x00,0x00,0x00,0x40,0x0a,0x22,0x90,0x00,0x00,0x00,0x00,0x00,0x00,0x00,
 0x00,0x48,0x00,0x00,0x00,0x40,0x8a,0x22,0x91,0x00,0x00,0x00,0x00,0x00,0x00,
 0x00,0x00,0x48,0x00,0x00,0x00,0x40,0x72,0x22,0x0e,0xff,0xff,0xff,0xff,0xff,
 0xff,0xff,0xff,0x47,0x00,0x00,0x00,0x40,0x02,0x00,0x00,0x00,0x00,0x00,0x00,
 0x00,0x00,0x00,0x00,0x40,0x00,0x00,0x00,0x40,0x02,0x00,0x00,0x00,0x00,0x00,
 0x00,0x00,0x00,0x00,0x00,0x40,0x00,0x00,0x00,0x40,0x72,0x22,0x18,0xff,0xff,
 0xff,0xff,0xff,0xff,0xff,0xff,0x47,0x00,0x00,0x00,0x40,0x8a,0x22,0x94,0x00,
 0x00,0x00,0x00,0x00,0x00,0x00,0x00,0x48,0x00,0x00,0x00,0x40,0x0a,0x3e,0x92,
 0x00,0x00,0x00,0x00,0x00,0x00,0x00,0x00,0x48,0x00,0x00,0x00,0x40,0x0a,0x22,
 0x91,0x00,0x00,0x00,0x00,0x00,0x00,0x00,0x00,0x48,0x00,0x00,0x00,0x40,0x0a,
 0x22,0x9f,0x00,0x00,0x00,0x00,0x00,0x00,0x00,0x00,0xc8,0xff,0xff,0xff,0x7f,
 0x8a,0x22,0x90,0x00,0x00,0x00,0x00,0x00,0x00,0x00,0x00,0x48,0x00,0x00,0x00,
 0x40,0x72,0x22,0x10,0xff,0xff,0xff,0xff,0xff,0xff,0xff,0xff,0x47,0x00,0x00,
 0x00,0x40,0x02,0x00,0x00,0x00,0x00,0x00,0x00,0x00,0x00,0x00,0x00,0x40,0x00,
 0x00,0x00,0x40,0x02,0x00,0x00,0x00,0x00,0x00,0x00,0x00,0x00,0x00,0x00,0x40,
 0x00,0x00,0x00,0x40,0x72,0x22,0x1f,0x00,0x00,0x00,0x00,0x00,0x00,0x00,0x00,
 0x40,0x00,0x00,0x00,0x40,0x8a,0x22,0x01,0xff,0xff,0xff,0xff,0xff,0xff,0xff,
 0xff,0x47,0x00,0x00,0x00,0x40,0x0a,0x3e,0x8f,0x00,0x00,0x00,0x00,0x00,0x00,
 0x00,0x00,0x48,0x00,0x00,0x00,0x40,0x0a,0x22,0x90,0x00,0x00,0x00,0x00,0x00,
 0x00,0x00,0x00,0x48,0x00,0x00,0x00,0x40,0x0a,0x22,0x90,0x00,0x00,0x00,0x00,
 0x00,0x00,0x00,0x00,0x48,0x00,0x00,0x00,0x40,0x8a,0x22,0x91,0x00,0x00,0x00,
 0x00,0x00,0x00,0x00,0x00,0x48,0x00,0x00,0x00,0x40,0x72,0x22,0x8e,0x00,0x00,
 0x00,0x00,0x00,0x00,0x00,0x00,0x48,0xc4,0xb1,0x11,0x53,0x02,0x00,0x00,0xff,
 0xff,0xff,0xff,0xff,0xff,0xff,0xff,0x47,0x4a,0x52,0x29,0x55,0x02,0x00,0x00,
 0x00,0x00,0x00,0x00,0x00,0x00,0x00,0x00,0x40,0x51,0x52,0x45,0x59,0x02,0x00,
 0x00,0x00,0x00,0x00,0x00,0x00,0x00,0x00,0x00,0x40,0xdf,0x11,0x7d,0x51,0x02,
 0x00,0x00,0x00,0x00,0x00,0x00,0x00,0x00,0x00,0x00,0x40,0x51,0x12,0x45,0x51,
 0x02,0x00,0x00,0x00,0x00,0x00,0x00,0x00,0x00,0x00,0x00,0x40,0x51,0x14,0x45,
 0x51,0x02,0x00,0x00,0x00,0x00,0x00,0x00,0x00,0x00,0x00,0x00,0x40,0x00,0x00,
 0x00,0x40,0xfe,0xff,0xff,0xff,0xff,0xff,0xff,0xff,0xff,0xff,0xff,0xff,0xff,
 0xff,0xff,0x7f,0x00,0x00,0x00,0x00,0x00,0x00,0x00,0x00,0x00,0x00,0x00,0x00,
 0x00,0x00,0x00,0x00 };
