#define _width 126
#define _height 64
static char _bits[] = {
 0x00,0x00,0x00,0x00,0x00,0x00,0x00,0x00,0x00,0x00,0x00,0x00,0x00,0x00,0x00,
 0x00,0xff,0xff,0xff,0xff,0xff,0xff,0xff,0xff,0xff,0xff,0xff,0xff,0xff,0xff,
 0xff,0x3f,0x01,0x00,0x00,0x00,0x00,0x00,0x00,0x00,0x00,0x00,0x00,0x20,0x00,
 0x00,0x00,0x20,0x01,0x00,0x00,0x00,0x00,0x00,0x00,0x00,0x00,0x00,0x00,0x20,
 0x00,0x00,0x00,0x20,0x39,0x11,0x07,0x00,0x00,0x00,0x00,0x00,0x00,0x00,0x00,
 0xa0,0xff,0x00,0x00,0x20,0x45,0x91,0x08,0x00,0x00,0x00,0x00,0x00,0x00,0x00,
 0x00,0xa0,0x88,0x00,0x00,0x20,0x05,0x9f,0x0c,0x00,0x00,0x00,0x00,0x00,0x00,
 0x00,0x00,0x20,0x49,0x00,0x00,0x20,0x05,0x91,0x0a,0x00,0x00,0x00,0x00,0x00,
 0x00,0x00,0x00,0x20,0x2a,0x00,0x00,0x20,0x05,0x91,0x09,0x00,0x00,0x00,0x00,
 0x00,0x00,0x00,0x00,0x20,0x1c,0x00,0x00,0x20,0x45,0x91,0x08,0x00,0x00,0x00,
 0x00,0x00,0x00,0x00,0x00,0x20,0x08,0x00,0x00,0x20,0x39,0x11,0x07,0x00,0x00,
 0x00,0x00,0x00,0x00,0x00,0x00,0x20,0x08,0x00,0x00,0x20,0x01,0x00,0x00,0x00,
 0x00,0x00,0x00,0x00,0x00,0x00,0x00,0x20,0x08,0x00,0x00,0x20,0x01,0x00,0x00,
 0x00,0x00,0x00,0x00,0x00,0x00,0x00,0x00,0x20,0x08,0x00,0x00,0x20,0x39,0x11,
 0x02,0x00,0x00,0x00,0x00,0x00,0x00,0x00,0x00,0x20,0x08,0x00,0x00,0x20,0x45,
 0x11,0x03,0x00,0x00,0x00,0x00,0x00,0x00,0x00,0x00,0x20,0x08,0x00,0x00,0x20,
 0x05,0x1f,0x02,0x00,0x00,0x00,0x00,0x00,0x00,0x00,0x00,0x20,0x08,0x00,0x00,
 0x20,0x05,0x11,0x02,0x00,0x00,0x00,0x00,0x00,0x00,0x00,0x00,0x20,0x08,0x00,
 0x00,0x20,0x05,0x11,0x02,0x00,0x00,0x00,0x00,0x00,0x00,0x00,0x00,0x20,0x00,
 0x00,0x00,0x20,0x45,0x11,0x02,0x00,0x00,0x00,0x00,0x00,0x00,0x00,0x00,0x20,
 0x00,0x00,0x00,0x20,0x39,0x91,0x0f,0x00,0x00,0x00,0x00,0x00,0x00,0x00,0x00,
 0xe0,0xff,0xff,0xff,0x3f,0x01,0x00,0x00,0x00,0x00,0x00,0x00,0x00,0x00,0x00,
 0x00,0x20,0x00,0x00,0x00,0x20,0x01,0x00,0x00,0x00,0x00,0x00,0x00,0x00,0x00,
 0x00,0x00,0x20,0x00,0x00,0x00,0x20,0x39,0x91,0x03,0x00,0x00,0x00,0x00,0x00,
 0x00,0x00,0x00,0x20,0x9c,0x87,0xf3,0x21,0x45,0x51,0x04,0x00,0x00,0x00,0x00,
 0x00,0x00,0x00,0x00,0x20,0xa2,0x48,0x44,0x20,0x05,0x1f,0x04,0x00,0x00,0x00,
 0x00,0x00,0x00,0x00,0x00,0x20,0x82,0xc7,0x47,0x20,0x05,0x11,0x03,0x00,0x00,
 0x00,0x00,0x00,0x00,0x00,0x00,0x20,0x82,0x48,0x44,0x20,0x05,0x91,0x00,0x00,
 0x00,0x00,0x00,0x00,0x00,0x00,0x00,0x20,0x82,0x48,0x44,0x20,0x45,0x51,0x00,
 0x00,0x00,0x00,0x00,0x00,0x00,0x00,0x00,0x20,0xa2,0x48,0x44,0x20,0x39,0xd1,
 0x07,0x00,0x00,0x00,0x00,0x00,0x00,0x00,0x00,0x20,0x9c,0x47,0x44,0x20,0x01,
 0x00,0x00,0x00,0x00,0x00,0x00,0x00,0x00,0x00,0x00,0x20,0x00,0x00,0x00,0x20,
 0x01,0x00,0x00,0x00,0x00,0x00,0x00,0x00,0x00,0x00,0x00,0x20,0xf8,0xff,0x3f,
 0x20,0x39,0x11,0x07,0x00,0x00,0x00,0x00,0x00,0x00,0x00,0x00,0x20,0x00,0x00,
 0x00,0x20,0x45,0x91,0x08,0x00,0x00,0x00,0x00,0x00,0x00,0x00,0x00,0x20,0x00,
 0x00,0x00,0x20,0x05,0x1f,0x08,0x00,0x00,0x00,0x00,0x00,0x00,0x00,0x00,0x20,
 0x00,0x00,0x00,0x20,0x05,0x11,0x06,0x00,0x00,0x00,0x00,0x00,0x00,0x00,0x00,
 0x20,0x00,0x00,0x00,0x20,0x05,0x11,0x08,0x00,0x00,0x00,0x00,0x00,0x00,0x00,
 0x00,0x20,0x00,0x00,0x00,0x20,0x45,0x91,0x08,0x00,0x00,0x00,0x00,0x00,0x00,
 0x00,0x00,0x20,0x00,0x00,0x00,0x20,0x39,0x11,0x07,0x00,0x00,0x00,0x00,0x00,
 0x00,0x00,0x00,0x20,0x00,0x00,0x00,0x20,0x01,0x00,0x00,0x00,0x00,0x00,0x00,
 0x00,0x00,0x00,0x00,0x20,0x00,0x00,0x00,0x20,0x01,0x00,0x00,0x00,0x00,0x00,
 0x00,0x00,0x00,0x00,0x00,0x20,0x00,0x00,0x00,0x20,0x39,0x11,0x0c,0x00,0x00,
 0x00,0x00,0x00,0x00,0x00,0x00,0x20,0x00,0x00,0x00,0x20,0x45,0x11,0x0a,0x00,
 0x00,0x00,0x00,0x00,0x00,0x00,0x00,0x20,0x00,0x00,0x00,0x20,0x05,0x1f,0x09,
 0x00,0x00,0x00,0x00,0x00,0x00,0x00,0x00,0x20,0x00,0x00,0x00,0x20,0x05,0x91,
 0x08,0x00,0x00,0x00,0x00,0x00,0x00,0x00,0x00,0x20,0x00,0x00,0x00,0x20,0x05,
 0x91,0x0f,0x00,0x00,0x00,0x00,0x00,0x00,0x00,0x00,0xe0,0xff,0xff,0xff,0x3f,
 0x45,0x11,0x08,0x00,0x00,0x00,0x00,0x00,0x00,0x00,0x00,0x20,0x00,0x00,0x00,
 0x20,0x39,0x11,0x08,0x00,0x00,0x00,0x00,0x00,0x00,0x00,0x00,0x20,0x00,0x00,
 0x00,0x20,0x01,0x00,0x00,0x00,0x00,0x00,0x00,0x00,0x00,0x00,0x00,0x20,0x00,
 0x00,0x00,0x20,0x01,0x00,0x00,0x00,0x00,0x00,0x00,0x00,0x00,0x00,0x00,0x20,
 0x00,0x00,0x00,0x20,0x39,0x91,0x0f,0x00,0x00,0x00,0x00,0x00,0x00,0x00,0x00,
 0x20,0x00,0x00,0x00,0x20,0x45,0x91,0x00,0x00,0x00,0x00,0x00,0x00,0x00,0x00,
 0x00,0x20,0x00,0x00,0x00,0x20,0x05,0x9f,0x07,0x00,0x00,0x00,0x00,0x00,0x00,
 0x00,0x00,0x20,0x00,0x00,0x00,0x20,0x05,0x11,0x08,0x00,0x00,0x00,0x00,0x00,
 0x00,0x00,0x00,0x20,0x00,0x00,0x00,0x20,0x05,0x11,0x08,0x00,0x00,0x00,0x00,
 0x00,0x00,0x00,0x00,0x20,0x00,0x00,0x00,0x20,0x45,0x91,0x08,0x00,0x00,0x00,
 0x00,0x00,0x00,0x00,0x00,0x20,0x00,0x00,0x00,0x20,0x39,0x11,0x07,0x00,0x00,
 0x00,0x00,0x00,0x00,0x00,0x00,0x20,0xe2,0xd8,0x88,0x29,0x01,0x00,0x00,0x00,
 0x00,0x00,0x00,0x00,0x00,0x00,0x00,0x20,0x25,0xa9,0x94,0x2a,0x01,0x00,0x00,
 0x00,0x00,0x00,0x00,0x00,0x00,0x00,0x00,0xa0,0x28,0xa9,0xa2,0x2c,0x01,0x00,
 0x00,0x00,0x00,0x00,0x00,0x00,0x00,0x00,0x00,0xa0,0xef,0x88,0xbe,0x28,0x01,
 0x00,0x00,0x00,0x00,0x00,0x00,0x00,0x00,0x00,0x00,0xa0,0x28,0x89,0xa2,0x28,
 0x01,0x00,0x00,0x00,0x00,0x00,0x00,0x00,0x00,0x00,0x00,0xa0,0x28,0x8a,0xa2,
 0x28,0x01,0x00,0x00,0x00,0x00,0x00,0x00,0x00,0x00,0x00,0x00,0x20,0x00,0x00,
 0x00,0x20,0xff,0xff,0xff,0xff,0xff,0xff,0xff,0xff,0xff,0xff,0xff,0xff,0xff,
 0xff,0xff,0x3f,0x00,0x00,0x00,0x00,0x00,0x00,0x00,0x00,0x00,0x00,0x00,0x00,
 0x00,0x00,0x00,0x00 };
