#define _width 128
#define _height 64
static char _bits[] = {
 0x00,0x00,0x00,0x00,0x00,0x00,0x00,0x00,0x00,0x00,0x00,0x00,0x00,0x00,0x00,
 0x00,0x00,0x00,0x00,0x00,0x00,0x00,0x00,0x00,0x00,0x00,0x00,0x00,0x00,0x00,
 0x00,0x00,0x00,0x00,0x00,0x00,0xc3,0xfe,0x0d,0xc0,0x87,0xcf,0x30,0xff,0x00,
 0x00,0x00,0x00,0x00,0x00,0x00,0x00,0xc3,0xfe,0x0d,0xc0,0x87,0xcf,0x30,0xff,
 0x00,0x00,0x00,0x00,0x00,0x00,0x00,0x00,0xc3,0x06,0x0c,0x30,0x6c,0xd8,0x39,
 0x03,0x00,0x00,0x00,0x00,0x00,0x00,0x00,0x00,0xc3,0x06,0x0c,0x30,0x6c,0xd8,
 0x39,0x03,0x00,0x00,0x00,0x00,0x00,0x00,0x00,0x00,0xc3,0x3e,0x0c,0x30,0x60,
 0xd8,0x36,0x1f,0x00,0x00,0x00,0x00,0x00,0x00,0x00,0x00,0xc3,0x06,0x0c,0x30,
 0x60,0xd8,0x30,0x03,0x00,0x00,0x00,0x00,0x00,0x00,0x00,0x00,0xc3,0x06,0x0c,
 0x30,0x60,0xd8,0x30,0x03,0x00,0x00,0x00,0x00,0x00,0x00,0x00,0x00,0xdb,0x06,
 0x0c,0x30,0x60,0xd8,0x30,0x03,0x00,0x00,0x00,0x00,0x00,0x00,0x00,0x00,0xdb,
 0x06,0x0c,0x30,0x60,0xd8,0x30,0x03,0x00,0x00,0x00,0x00,0x00,0x00,0x00,0x00,
 0xe7,0x06,0x0c,0x30,0x6c,0xd8,0x30,0x03,0x00,0x00,0x00,0x00,0x00,0x00,0x00,
 0x00,0xc3,0xfe,0xfd,0xc3,0x87,0xcf,0x30,0xff,0x00,0x00,0x00,0x00,0x00,0x00,
 0x00,0x00,0xc3,0xfe,0xfd,0xc3,0x87,0xcf,0x30,0xff,0x00,0x00,0x00,0x00,0x00,
 0x00,0x00,0x00,0x00,0x00,0x00,0x00,0x00,0x00,0x00,0x00,0x00,0x00,0x00,0x00,
 0x00,0x00,0x00,0x00,0x00,0x00,0x00,0x00,0x00,0x00,0x00,0x00,0x00,0x00,0x00,
 0x00,0x00,0x00,0x00,0x00,0x00,0x00,0x00,0x00,0x00,0x00,0x00,0x00,0x00,0x00,
 0x00,0x00,0x00,0x00,0x00,0x00,0x00,0x00,0x00,0x00,0x00,0x00,0x00,0x00,0x00,
 0x00,0x00,0x00,0x00,0x00,0x00,0x00,0x00,0x00,0x00,0x00,0x00,0x00,0x00,0x00,
 0x00,0x00,0x00,0x00,0xc0,0x87,0xe3,0xc0,0xf8,0x1c,0x07,0x1f,0x3c,0xe0,0x7c,
 0xce,0xe0,0x31,0x7c,0x00,0x80,0x48,0x44,0xc0,0x10,0x89,0x04,0x22,0x22,0x90,
 0x88,0x44,0x10,0x31,0x88,0x00,0x80,0x28,0x48,0x20,0x11,0x89,0x00,0x22,0x01,
 0x10,0x88,0x28,0x08,0x48,0x88,0x00,0x80,0x28,0x48,0x20,0x11,0x09,0x01,0x22,
 0x01,0x20,0x88,0x28,0x08,0x48,0x88,0x00,0x80,0x27,0x48,0x20,0xf1,0x08,0x02,
 0x1e,0x01,0x40,0x78,0x10,0x08,0x48,0x78,0x00,0x80,0x20,0x48,0xe0,0x91,0x08,
 0x04,0x12,0x01,0x80,0x08,0x10,0x08,0x78,0x48,0x00,0x80,0x20,0x48,0x10,0x92,
 0x08,0x04,0x12,0x01,0x80,0x08,0x10,0x08,0x84,0x48,0x00,0x80,0x40,0x44,0x14,
 0x12,0x89,0x04,0x22,0x22,0x90,0x08,0x10,0x10,0x85,0x88,0x00,0xc0,0x81,0xe3,
 0x3f,0x3f,0x9f,0x03,0x67,0x3c,0x70,0x1c,0x38,0xe0,0xcf,0x9d,0x01,0x00,0x00,
 0x00,0x00,0x00,0x00,0x00,0x00,0x00,0x00,0x00,0x00,0x00,0x00,0x00,0x00,0x00,
 0x00,0x00,0x00,0x00,0x00,0x00,0x00,0x00,0x00,0x00,0x00,0x00,0x00,0x00,0x00,
 0x00,0x00,0x00,0x00,0x00,0x00,0x00,0x00,0x00,0x00,0x00,0x00,0x00,0x00,0x00,
 0x00,0x00,0x00,0x00,0x00,0x00,0x00,0x00,0x00,0x00,0x00,0x00,0x00,0x00,0x00,
 0x00,0x00,0x00,0x00,0x00,0x00,0x00,0x00,0x00,0x00,0x00,0x00,0x00,0x00,0x00,
 0x00,0x00,0x00,0x00,0x00,0x00,0x00,0x00,0x00,0x00,0x00,0x00,0x00,0x00,0x00,
 0x00,0x00,0x00,0x00,0x00,0x00,0x80,0xf3,0xdf,0x07,0x08,0x10,0x30,0xf7,0xf1,
 0x73,0x20,0x00,0x00,0x00,0x00,0x00,0x00,0x21,0x91,0x08,0x0e,0x1c,0x60,0x22,
 0x22,0x8a,0x30,0x00,0x00,0x00,0x00,0x00,0x00,0x21,0x81,0x08,0x08,0x10,0x60,
 0x22,0x22,0x80,0x28,0x00,0x00,0x00,0x00,0x00,0x00,0x12,0x89,0x08,0x08,0x10,
 0xa0,0x22,0x22,0x81,0x24,0x00,0x00,0x00,0x00,0x00,0x00,0x12,0x8f,0x07,0x08,
 0x10,0xa0,0xe2,0xe1,0x41,0xa2,0x00,0x00,0x00,0x00,0x00,0x00,0x12,0x89,0x04,
 0x08,0x10,0xa0,0x22,0x21,0x21,0xfe,0x00,0x00,0x00,0x00,0x00,0x00,0x12,0x81,
 0x04,0x08,0x10,0x20,0x23,0x21,0x10,0x20,0x00,0x00,0x00,0x00,0x00,0x00,0x0c,
 0x91,0x08,0x08,0x11,0x20,0x23,0x22,0x88,0x20,0x00,0x00,0x00,0x00,0x00,0x00,
 0x8c,0xdf,0x19,0x3e,0x7d,0x70,0x72,0x76,0xf8,0x70,0x00,0x00,0x00,0x00,0x00,
 0x00,0x00,0x00,0x00,0x00,0x00,0x00,0x00,0x00,0x00,0x00,0x00,0x00,0x00,0x00,
 0x00,0x00,0x00,0x00,0x00,0x00,0x00,0x00,0x00,0x00,0x00,0x00,0x00,0x00,0x00,
 0x00,0x00,0x00,0x00,0x00,0x00,0x00,0x00,0x00,0x00,0x00,0x00,0x00,0x00,0x00,
 0x00,0x00,0x00,0x00,0x00,0x00,0x00,0x00,0x00,0x00,0x00,0x00,0x00,0x00,0x00,
 0x00,0x00,0x00,0x00,0x00,0x00,0x00,0x00,0x00,0x00,0x00,0x00,0x00,0x00,0x00,
 0x00,0x00,0x00,0x00,0x00,0x00,0x00,0x00,0x00,0x00,0x00,0x00,0x00,0x00,0x00,
 0x00,0x00,0x00,0x00,0x00,0x00,0x00,0x00,0x00,0x00,0x00,0x00,0x00,0x00,0x00,
 0x00,0x00,0x00,0x00,0x00,0x00,0x00,0x00,0x00,0x00,0x00,0x00,0x00,0x00,0x00,
 0x00,0x00,0x00,0x00,0x00,0x00,0x00,0x00,0x00,0x00,0x00,0x00,0x00,0x00,0x00,
 0x00,0x00,0x00,0x00,0x00,0x00,0x00,0x00,0x00,0x00,0x00,0x00,0x00,0x00,0x00,
 0x00,0x00,0x00,0x00,0x00,0x00,0x00,0x00,0x00,0x00,0x00,0x00,0x00,0x00,0x00,
 0x00,0x00,0x00,0x00,0x00,0x00,0x00,0x00,0x00,0x00,0x00,0x00,0x00,0x00,0x00,
 0x00,0x00,0x00,0x00,0x00,0x00,0x00,0x00,0x00,0x00,0x00,0x00,0x00,0x00,0x00,
 0x00,0x00,0x00,0x00,0x00,0x00,0x00,0x00,0x00,0x00,0x00,0x00,0x00,0x00,0x00,
 0x00,0x00,0x00,0x00,0x00,0x00,0x00,0x00,0x00,0x00,0x00,0x00,0x00,0x00,0x00,
 0x00,0x00,0x00,0x00,0x00,0x00,0x00,0x00,0x00,0x00,0x00,0x00,0x00,0x00,0x00,
 0x00,0x00,0x00,0x00,0x00,0x00,0x00,0x00,0x00,0x00,0x00,0x00,0x00,0x00,0x00,
 0x00,0x00,0x00,0x00,0x00,0x00,0x00,0x00,0x00,0x00,0x00,0x00,0x00,0x00,0x00,
 0x00,0x00,0x00,0x00,0x00,0x00,0x00,0x00,0x00,0x00,0x00,0x00,0x00,0x00,0x00,
 0x00,0x00,0x00,0x00,0x00,0x00,0x00,0x00,0x00,0x00,0x00,0x00,0x00,0x00,0x00,
 0x00,0x00,0x00,0x00,0x00,0x00,0x00,0x00,0x00,0x00,0x00,0x00,0x00,0x00,0x00,
 0x00,0x00,0x00,0x00,0x00,0x00,0x00,0x00,0x00,0x00,0x00,0x00,0x00,0x00,0x00,
 0x00,0x00,0x00,0x00 };
