#define _width 16
#define _height 10
static char _bits[] = {
 0x40,0x80,0x90,0x40,0x10,0x21,0x14,0x12,0x14,0x0c,0x15,0x0c,0x15,0x12,0x15,
 0x21,0x95,0x40,0x55,0x80 };
