#define _width 5
#define _height 9
static char _bits[] = {
 0x10,0x10,0x14,0x14,0x15,0x15,0x15,0x15,0x15 };
